<svg id="Layer_1" data-name="Layer 1" xmlns="http://www.w3.org/2000/svg" viewBox="0 0 1024 1024"><defs><style>.cls-1{fill:#fff;stroke:#000;}.cls-1,.cls-2,.cls-3,.cls-4{stroke-miterlimit:10;}.cls-2,.cls-3,.cls-4{fill:none;stroke:#333;stroke-linecap:round;}.cls-2{stroke-width:14.05px;}.cls-3{stroke-width:14.75px;}.cls-4{stroke-width:16.47px;}.cls-5{fill:#333;}</style></defs><title>cirkit-logo</title><rect class="cls-1" width="1024" height="1024"/><line class="cls-2" x1="1000.49" y1="724.74" x2="795.4" y2="724.74"/><line class="cls-2" x1="795.4" y1="724.74" x2="713.37" y2="871.53"/><line class="cls-3" x1="633.49" y1="577.31" x2="713.37" y2="871.53"/><line class="cls-3" x1="560.09" y1="871.53" x2="633.49" y2="577.31"/><line class="cls-3" x1="465.11" y1="576.68" x2="560.09" y2="871.53"/><line class="cls-3" x1="378.75" y1="871.53" x2="465.11" y2="576.68"/><line class="cls-3" x1="301.04" y1="576.68" x2="378.75" y2="871.53"/><line class="cls-4" x1="23.63" y1="724.11" x2="267.58" y2="722.84"/><line class="cls-3" x1="266.5" y1="723.47" x2="301.04" y2="576.68"/><path class="cls-5" d="M251.18,413.11c52.52,0,87.75-26.18,98.62-73.1h-30c-8.56,29-33.58,45.77-68.49,45.77-46.92,0-76.72-37.21-76.72-95.5,0-57.79,30.13-95.33,76.56-95.33,33.91,0,61.08,20.42,68.65,51.54h30c-7.58-47.42-46.93-78.87-98.62-78.87-65,0-107,48.08-107,122.66C144.16,365.53,185.65,413.11,251.18,413.11Z"/><path class="cls-5" d="M396,207.47a18,18,0,1,0-18-17.95A17.88,17.88,0,0,0,396,207.47ZM381.71,409.16h28.65V237.93H381.71Z"/><path class="cls-5" d="M449,409.16h28.64V302.47c0-24.21,14.49-40.18,36.72-40.18,6.91,0,13,.83,15.31,1.65V236.12A73.37,73.37,0,0,0,518.18,235c-20.09,0-35.9,12-41.49,31H476v-28H449Z"/><path class="cls-5" d="M732.33,207.47a18,18,0,1,0-18-17.95A17.88,17.88,0,0,0,732.33,207.47ZM718,409.16h28.65V237.93H718Z"/><polygon class="cls-5" points="583.02 313.99 583.02 171.57 554.37 171.57 554.37 409.16 583.02 409.16 583.02 344.62 598.99 329.47 662.54 409.16 695.8 409.16 619.24 311.85 693.5 237.93 658.76 237.93 583.02 313.99"/><path class="cls-5" d="M794.53,196.6v41.33H769v23.54h25.52V364.7c0,32.93,12.19,45.77,43.64,45.77,6.75,0,14.65-.49,18.11-1.31v-24a111.63,111.63,0,0,1-11.86.82c-14.65,0-21.24-7.08-21.24-22.72V261.47h33.26V237.93H823.18V196.6Z"/></svg>